<svg xmlns="http://www.w3.org/2000/svg" xmlns:xlink="http://www.w3.org/1999/xlink" id="Layer_1" x="0px" y="0px" viewBox="0 0 486 94" style="enable-background:new 0 0 486 94;" xml:space="preserve"><style type="text/css">	.st0{fill:#414042;}	.st1{fill:#00426B;}	.st2{fill:url(#SVGID_1_);}</style><g>	<g>		<path class="st0" d="M260.1,59.9l-3.5-10.8h-2.8v10.8h-3V34.7h5.7c0.9,0,1.8,0.1,2.5,0.4c0.7,0.2,1.4,0.6,1.9,1.2   c0.5,0.5,0.9,1.3,1.1,2.2c0.3,0.9,0.4,2.1,0.4,3.4c0,1.8-0.2,3.2-0.7,4.2s-1.2,1.8-2.4,2.3l3.9,11.4L260.1,59.9L260.1,59.9z    M259.4,41.9c0-0.7,0-1.3-0.1-1.8c-0.1-0.6-0.2-1-0.4-1.4c-0.2-0.4-0.5-0.7-0.9-0.9s-0.8-0.3-1.4-0.3h-2.7v8.9h2.7   c0.6,0,1.1-0.1,1.4-0.3c0.4-0.2,0.7-0.5,0.9-0.9c0.2-0.4,0.4-0.9,0.4-1.4C259.3,43.2,259.4,42.6,259.4,41.9z"></path>		<path class="st0" d="M266.9,59.9V34.7h9.7v2.7h-6.7v8.4h5.8v2.7h-5.8V57h6.7v2.7h-9.7V59.9z"></path>		<path class="st0" d="M291.2,56.6c-0.3,0.9-0.8,1.6-1.4,2.2c-0.5,0.5-1.1,0.8-1.7,1s-1.4,0.3-2.2,0.3c-1,0-1.9-0.2-2.6-0.5   s-1.3-0.8-1.7-1.3c-0.4-0.5-0.8-1-1-1.6s-0.4-1.4-0.6-2.2c-0.1-0.9-0.2-1.9-0.2-3.1c0-1.2,0-2.5,0-4.1s0-2.9,0-4.1   c0-1.2,0.1-2.2,0.2-3.1c0.1-0.9,0.3-1.6,0.6-2.2c0.2-0.6,0.6-1.2,1-1.6c0.5-0.5,1.1-1,1.7-1.3c0.7-0.3,1.5-0.5,2.6-0.5   c0.9,0,1.6,0.1,2.3,0.4c0.6,0.3,1.2,0.6,1.7,1.1c0.6,0.6,1,1.3,1.3,2.1c0.3,0.9,0.5,1.8,0.5,2.9h-3c0-0.5-0.1-1.1-0.2-1.6   s-0.3-1-0.6-1.3c-0.2-0.3-0.5-0.5-0.8-0.6c-0.3-0.2-0.7-0.2-1.2-0.2s-0.9,0.1-1.2,0.3c-0.3,0.2-0.6,0.4-0.8,0.7   c-0.2,0.3-0.4,0.7-0.5,1.1c-0.1,0.4-0.3,1-0.3,1.7c-0.1,0.7-0.1,1.6-0.2,2.6c0,1,0,2.3,0,3.8s0,2.7,0,3.8c0,1,0.1,1.9,0.2,2.6   c0.1,0.7,0.2,1.3,0.3,1.7s0.3,0.8,0.5,1.1s0.5,0.5,0.8,0.7s0.7,0.3,1.2,0.3s0.9-0.1,1.2-0.3c0.3-0.2,0.6-0.4,0.8-0.7   c0.3-0.4,0.5-0.8,0.6-1.3s0.2-1,0.2-1.6h3C291.7,54.7,291.5,55.7,291.2,56.6z"></path>		<path class="st0" d="M304.5,59.9L301,49.1h-2.8v10.8h-3V34.7h5.7c0.9,0,1.8,0.1,2.5,0.4c0.7,0.2,1.4,0.6,1.9,1.2   c0.5,0.5,0.9,1.3,1.1,2.2c0.3,0.9,0.4,2.1,0.4,3.4c0,1.8-0.2,3.2-0.7,4.2s-1.2,1.8-2.4,2.3l3.9,11.4L304.5,59.9L304.5,59.9z    M303.8,41.9c0-0.7,0-1.3-0.1-1.8c-0.1-0.6-0.2-1-0.4-1.4c-0.2-0.4-0.5-0.7-0.9-0.9s-0.8-0.3-1.4-0.3h-2.7v8.9h2.7   c0.6,0,1.1-0.1,1.4-0.3c0.4-0.2,0.7-0.5,0.9-0.9c0.2-0.4,0.4-0.9,0.4-1.4C303.8,43.2,303.8,42.6,303.8,41.9z"></path>		<path class="st0" d="M311.3,59.9V34.7h9.7v2.7h-6.7v8.4h5.8v2.7h-5.8V57h6.7v2.7h-9.7V59.9z"></path>		<path class="st0" d="M334.1,59.9l-1.2-5.9h-5.8l-1.2,5.9h-3.2l5.9-25.2h2.9l5.8,25.2H334.1z M330,39.6l-2.4,11.6h4.7L330,39.6z"></path>		<path class="st0" d="M344.2,37.4v22.4h-3V37.4H337v-2.7h11.5v2.7H344.2z"></path>		<path class="st0" d="M351.4,59.9V34.7h3v25.2H351.4z"></path>		<path class="st0" d="M370.7,47.3c0,1.6,0,2.9,0,4.1c0,1.2-0.1,2.2-0.2,3.1c-0.1,0.9-0.3,1.6-0.5,2.2c-0.2,0.6-0.6,1.2-1,1.6   c-0.5,0.5-1.1,1-1.8,1.3c-0.7,0.3-1.6,0.5-2.6,0.5s-1.9-0.2-2.6-0.5s-1.3-0.8-1.7-1.3c-0.4-0.5-0.8-1-1-1.6s-0.4-1.4-0.6-2.2   c-0.1-0.9-0.2-1.9-0.2-3.1c0-1.2,0-2.5,0-4.1s0-2.9,0-4.1c0-1.2,0.1-2.2,0.2-3.1c0.1-0.9,0.3-1.6,0.6-2.2c0.2-0.6,0.6-1.2,1-1.6   c0.5-0.5,1.1-1,1.7-1.3c0.7-0.3,1.5-0.5,2.6-0.5s1.9,0.2,2.6,0.5s1.3,0.8,1.8,1.3c0.4,0.5,0.8,1,1,1.6s0.4,1.4,0.5,2.2   c0.1,0.9,0.2,1.9,0.2,3.1C370.7,44.4,370.7,45.7,370.7,47.3z M367.7,47.3c0-1.5,0-2.7,0-3.8c0-1-0.1-1.9-0.2-2.6   c-0.1-0.7-0.2-1.3-0.3-1.7c-0.1-0.4-0.3-0.8-0.5-1.1s-0.5-0.5-0.8-0.7s-0.7-0.3-1.2-0.3s-0.9,0.1-1.2,0.3   c-0.3,0.2-0.6,0.4-0.8,0.7c-0.2,0.3-0.4,0.7-0.5,1.1c-0.1,0.4-0.3,1-0.3,1.7c-0.1,0.7-0.1,1.6-0.2,2.6c0,1,0,2.3,0,3.8   s0,2.7,0,3.8c0,1,0.1,1.9,0.2,2.6c0.1,0.7,0.2,1.3,0.3,1.7s0.3,0.8,0.5,1.1s0.5,0.5,0.8,0.7s0.7,0.3,1.2,0.3s0.9-0.1,1.2-0.3   c0.3-0.2,0.6-0.4,0.8-0.7c0.2-0.3,0.4-0.7,0.5-1.1s0.3-1,0.3-1.7c0.1-0.7,0.1-1.6,0.2-2.6C367.7,50,367.7,48.8,367.7,47.3z"></path>		<path class="st0" d="M384.2,59.9l-6.5-17.2v17.2h-3V34.7h2.8l6.5,17.2V34.7h3v25.2H384.2z"></path>		<path class="st0" d="M400.9,59.9l-1.2-5.9h-5.8l-1.2,5.9h-3.2l5.9-25.2h2.9l5.8,25.2H400.9z M396.8,39.6l-2.4,11.6h4.7L396.8,39.6   z"></path>		<path class="st0" d="M406.5,59.9V34.7h3v22.4h6.7v2.7h-9.7V59.9z"></path>	</g>	<g>		<path class="st0" d="M262.2,92.7l-1.2-5.9h-5.8l-1.2,5.9h-3.2l5.9-25.2h2.9l5.8,25.2H262.2z M258.1,72.5l-2.4,11.6h4.7L258.1,72.5   z"></path>		<path class="st0" d="M273.3,92.7h-3.1l-5.4-25.2h3.4l3.6,20.2l3.7-20.2h3.3L273.3,92.7z"></path>		<path class="st0" d="M281.2,92.7V67.6h3v25.2h-3V92.7z"></path>		<path class="st0" d="M298.1,92.7l-1.2-5.9H291l-1.2,5.9h-3.2l5.9-25.2h2.9l5.8,25.2H298.1z M294,72.5l-2.4,11.6h4.7L294,72.5z"></path>		<path class="st0" d="M308.2,70.3v22.4h-3V70.3H301v-2.7h11.5v2.7H308.2z"></path>		<path class="st0" d="M315.4,92.7V67.6h3v25.2h-3V92.7z"></path>		<path class="st0" d="M334.7,80.1c0,1.6,0,2.9,0,4.1s-0.1,2.2-0.2,3.1s-0.3,1.6-0.5,2.2s-0.6,1.2-1,1.6c-0.5,0.5-1.1,1-1.8,1.3   c-0.7,0.3-1.6,0.5-2.6,0.5s-1.9-0.2-2.6-0.5s-1.3-0.8-1.7-1.3c-0.4-0.5-0.8-1-1-1.6s-0.4-1.4-0.6-2.2c-0.1-0.9-0.2-1.9-0.2-3.1   s0-2.5,0-4.1s0-2.9,0-4.1s0.1-2.2,0.2-3.1s0.3-1.6,0.6-2.2c0.2-0.6,0.6-1.2,1-1.6c0.5-0.5,1.1-1,1.7-1.3c0.7-0.3,1.5-0.5,2.6-0.5   s1.9,0.2,2.6,0.5s1.3,0.8,1.8,1.3c0.4,0.5,0.8,1,1,1.6s0.4,1.4,0.5,2.2c0.1,0.9,0.2,1.9,0.2,3.1S334.7,78.6,334.7,80.1z    M331.7,80.1c0-1.5,0-2.7,0-3.8c0-1-0.1-1.9-0.2-2.6s-0.2-1.3-0.3-1.7c-0.1-0.4-0.3-0.8-0.5-1.1c-0.2-0.3-0.5-0.5-0.8-0.7   s-0.7-0.3-1.2-0.3s-0.9,0.1-1.2,0.3c-0.3,0.2-0.6,0.4-0.8,0.7c-0.2,0.3-0.4,0.7-0.5,1.1s-0.3,1-0.3,1.7c-0.1,0.7-0.1,1.6-0.2,2.6   c0,1,0,2.3,0,3.8s0,2.7,0,3.8c0,1,0.1,1.9,0.2,2.6s0.2,1.3,0.3,1.7c0.1,0.4,0.3,0.8,0.5,1.1c0.2,0.3,0.5,0.5,0.8,0.7   s0.7,0.3,1.2,0.3s0.9-0.1,1.2-0.3c0.3-0.2,0.6-0.4,0.8-0.7c0.2-0.3,0.4-0.7,0.5-1.1s0.3-1,0.3-1.7c0.1-0.7,0.1-1.6,0.2-2.6   C331.7,82.9,331.7,81.6,331.7,80.1z"></path>		<path class="st0" d="M348.2,92.7l-6.5-17.2v17.2h-3V67.6h2.8l6.5,17.2V67.6h3v25.2h-2.8V92.7z"></path>		<path class="st0" d="M371.8,92.7l-1.2-5.9h-5.8l-1.2,5.9h-3.2l5.9-25.2h2.9l5.8,25.2H371.8z M367.7,72.5l-2.4,11.6h4.7L367.7,72.5   z"></path>		<path class="st0" d="M388.6,89.5c-0.3,0.7-0.7,1.4-1.2,1.9s-1.2,1-1.9,1.2c-0.7,0.3-1.5,0.4-2.3,0.4c-1.7,0-3.1-0.6-4.2-1.7   c-0.5-0.5-0.9-1.1-1.2-1.9c-0.3-0.7-0.4-1.6-0.4-2.5V67.6h3v19.6c0,1,0.3,1.8,0.8,2.3s1.2,0.8,1.9,0.8c0.8,0,1.4-0.3,2-0.8   s0.8-1.3,0.8-2.3V67.6h3V87C389,87.9,388.9,88.7,388.6,89.5z"></path>		<path class="st0" d="M404.4,86c0,1.3-0.1,2.4-0.3,3.3c-0.2,0.9-0.6,1.6-1.2,2.2c-0.5,0.5-1.1,0.8-1.8,1.1   c-0.7,0.3-1.6,0.4-2.6,0.4c-1.9,0-3.4-0.5-4.4-1.5c-0.6-0.6-1-1.3-1.2-2.1c-0.2-0.8-0.3-1.9-0.3-3.2h3c0,0.8,0.1,1.5,0.2,2   s0.3,0.9,0.7,1.3c0.2,0.2,0.5,0.4,0.8,0.6c0.4,0.1,0.8,0.2,1.2,0.2c0.5,0,0.9-0.1,1.3-0.2s0.6-0.3,0.9-0.6   c0.3-0.4,0.5-0.8,0.7-1.3c0.1-0.5,0.2-1.2,0.2-2c0-0.7,0-1.3-0.1-1.8s-0.2-0.9-0.4-1.3c-0.2-0.3-0.4-0.6-0.7-0.9   c-0.3-0.2-0.7-0.5-1.3-0.7l-2.9-1.2c-0.6-0.3-1.2-0.6-1.6-0.9s-0.8-0.7-1.1-1.2c-0.3-0.5-0.4-1.1-0.6-1.7   c-0.1-0.7-0.2-1.5-0.2-2.5c0-1.1,0.2-2.1,0.5-3s0.8-1.6,1.4-2.2c1-1,2.4-1.5,4-1.5c0.9,0,1.7,0.1,2.4,0.4c0.7,0.2,1.3,0.6,1.7,1.1   c0.6,0.6,1.1,1.3,1.3,2.2c0.2,0.8,0.4,1.8,0.4,3h-3c0-0.7,0-1.3-0.1-1.7c-0.1-0.5-0.3-0.9-0.6-1.3c-0.4-0.6-1.1-0.8-2.1-0.8   c-0.4,0-0.8,0.1-1.1,0.2c-0.3,0.1-0.6,0.3-0.8,0.6c-0.6,0.7-0.9,1.7-0.9,3c0,0.6,0,1.1,0.1,1.6c0.1,0.4,0.2,0.8,0.4,1.1   c0.2,0.3,0.4,0.6,0.7,0.8c0.3,0.2,0.7,0.4,1.2,0.6l2.8,1.2c0.7,0.3,1.3,0.6,1.7,1c0.5,0.4,0.8,0.9,1.1,1.4   c0.3,0.5,0.5,1.2,0.5,1.9C404.3,84.1,404.4,85,404.4,86z"></path>		<path class="st0" d="M413.8,70.3v22.4h-3V70.3h-4.2v-2.7H418v2.7H413.8z"></path>		<path class="st0" d="M430.3,92.7l-3.5-10.8H424v10.8h-3V67.6h5.7c0.9,0,1.8,0.1,2.5,0.4c0.7,0.2,1.4,0.6,1.9,1.2   c0.5,0.5,0.9,1.3,1.1,2.2c0.3,0.9,0.4,2.1,0.4,3.4c0,1.8-0.2,3.2-0.7,4.2s-1.2,1.8-2.4,2.3l3.9,11.4H430.3z M429.6,74.7   c0-0.7,0-1.3-0.1-1.8c-0.1-0.6-0.2-1-0.4-1.4c-0.2-0.4-0.5-0.7-0.9-0.9c-0.4-0.2-0.8-0.3-1.4-0.3h-2.7v8.9h2.7   c0.6,0,1.1-0.1,1.4-0.3c0.4-0.2,0.7-0.5,0.9-0.9c0.2-0.4,0.4-0.9,0.4-1.4C429.6,76,429.6,75.4,429.6,74.7z"></path>		<path class="st0" d="M446.4,92.7l-1.2-5.9h-5.8l-1.2,5.9H435l5.9-25.2h2.9l5.8,25.2H446.4z M442.3,72.5L440,84.1h4.7L442.3,72.5z"></path>		<path class="st0" d="M452.1,92.7V67.6h3V90h6.7v2.7H452.1z"></path>		<path class="st0" d="M464.9,92.7V67.6h3v25.2h-3V92.7z"></path>		<path class="st0" d="M481.8,92.7l-1.2-5.9h-5.8l-1.2,5.9h-3.2l5.9-25.2h2.9l5.8,25.2H481.8z M477.7,72.5l-2.4,11.6h4.7L477.7,72.5   z"></path>	</g>	<g>		<path class="st1" d="M170,27.6l-16.3,12.7c0,0,24.4-1.5,74.1,38.4c0,0-0.1-2-4.1-7.9C216.7,61,170,27.6,170,27.6z"></path>		<path class="st1" d="M162.8,24.5l-19.4,9.6C139.4,24.8,77,0.3,77,0.3c1-0.8,11.9,0.3,17.5,1.4C100.1,2.9,160.1,22.8,162.8,24.5z"></path>					<linearGradient id="SVGID_1_" gradientUnits="userSpaceOnUse" x1="2.763270e-02" y1="-149.9" x2="165.5" y2="-149.9" gradientTransform="matrix(1 0 0 -1 0 -90.2)">			<stop offset="0" style="stop-color:#23A6D6"></stop>			<stop offset="0.3661" style="stop-color:#8ED7E9"></stop>			<stop offset="0.4002" style="stop-color:#86CFE2"></stop>			<stop offset="0.4534" style="stop-color:#71B9D0"></stop>			<stop offset="0.519" style="stop-color:#4E95B1"></stop>			<stop offset="0.5939" style="stop-color:#1F6387"></stop>			<stop offset="0.6377" style="stop-color:#00426B"></stop>			<stop offset="0.6826" style="stop-color:#397E9E"></stop>			<stop offset="0.7238" style="stop-color:#67AFC7"></stop>			<stop offset="0.7552" style="stop-color:#83CCE0"></stop>			<stop offset="0.7729" style="stop-color:#8ED7E9"></stop>			<stop offset="0.7807" style="stop-color:#9CDCEC"></stop>			<stop offset="0.8005" style="stop-color:#BAE7F2"></stop>			<stop offset="0.8224" style="stop-color:#D4F0F7"></stop>			<stop offset="0.8467" style="stop-color:#E7F7FA"></stop>			<stop offset="0.8747" style="stop-color:#F5FBFD"></stop>			<stop offset="0.9097" style="stop-color:#FDFEFF"></stop>			<stop offset="0.9739" style="stop-color:#FFFFFF"></stop>		</linearGradient>		<path class="st2" d="M10,78.1c-1.8-3.3-10.8-22.2,7-36.4c0,0-8.5,3.8-13.5,10.9C-1.7,60-2.1,71.4,9.6,78.2   c1,1.8,8.9,14.7,24.9,14.7c17.2,0,52.2-6.8,131-66.4C165.5,26.6,52.5,87.5,10,78.1z"></path>	</g></g></svg>